<svg width="21" height="20" viewBox="0 0 21 20" fill="none" xmlns="http://www.w3.org/2000/svg">
<g id="heart-solid 2">
<path id="Vector" d="M3.91606 11.6889L9.79822 17.1472C10.0424 17.3737 10.3646 17.4999 10.6999 17.4999C11.0352 17.4999 11.3575 17.3737 11.6016 17.1472L17.4838 11.6889C18.4733 10.7733 19.0332 9.48879 19.0332 8.14605V7.95839C19.0332 5.69677 17.3894 3.7684 15.1465 3.39632C13.6622 3.15042 12.1517 3.63251 11.0905 4.68729L10.6999 5.07555L10.3093 4.68729C9.24809 3.63251 7.73767 3.15042 6.2533 3.39632C4.01046 3.7684 2.36658 5.69677 2.36658 7.95839V8.14605C2.36658 9.48879 2.92647 10.7733 3.91606 11.6889Z" fill="#3B3C40"/>
</g>
</svg>
