<svg width="21" height="20" viewBox="0 0 21 20" fill="none" xmlns="http://www.w3.org/2000/svg">
<g id="icons" clip-path="url(#clip0_2_3038)">
<path id="Vector" d="M19.6768 9.98381C19.6768 10.5697 19.1886 11.0287 18.6352 11.0287H17.5935L17.6163 16.2436C17.6163 16.3315 17.6098 16.4194 17.6 16.5072V17.0313C17.6 17.7507 17.0173 18.3334 16.2979 18.3334H15.7771C15.7413 18.3334 15.7055 18.3334 15.6697 18.3302C15.6241 18.3334 15.5785 18.3334 15.533 18.3334H14.475H13.6938C12.9744 18.3334 12.3917 17.7507 12.3917 17.0313V16.2501V14.1667C12.3917 13.5906 11.9262 13.1251 11.35 13.1251H9.26668C8.69051 13.1251 8.22502 13.5906 8.22502 14.1667V16.2501V17.0313C8.22502 17.7507 7.64233 18.3334 6.92293 18.3334H6.14168H5.10327C5.05444 18.3334 5.00562 18.3302 4.95679 18.3269C4.91772 18.3302 4.87866 18.3334 4.8396 18.3334H4.31877C3.59937 18.3334 3.01668 17.7507 3.01668 17.0313V13.3855C3.01668 13.3562 3.01668 13.3237 3.01994 13.2944V11.0287H1.97502C1.38908 11.0287 0.93335 10.573 0.93335 9.98381C0.93335 9.69084 1.03101 9.43042 1.25887 9.20256L9.60522 1.92716C9.83309 1.6993 10.0935 1.66675 10.3214 1.66675C10.5492 1.66675 10.8097 1.73185 11.005 1.89461L19.3188 9.20256C19.5792 9.43042 19.7094 9.69084 19.6768 9.98381Z" fill="#3B3C40"/>
</g>
<defs>
<clipPath id="clip0_2_3038">
<rect width="20" height="20" fill="white" transform="translate(0.0999756)"/>
</clipPath>
</defs>
</svg>
