<svg width="21" height="21" viewBox="0 0 21 21" fill="none" xmlns="http://www.w3.org/2000/svg">
<g id="icons">
<path id="Vector" d="M10.7158 10.112C11.6928 10.112 12.5389 9.76153 13.2302 9.07012C13.9215 8.37886 14.2719 7.53303 14.2719 6.55589C14.2719 5.57903 13.9215 4.73312 13.2301 4.04159C12.5386 3.35042 11.6927 3 10.7158 3C9.73862 3 8.89276 3.35042 8.2015 4.04171C7.51024 4.733 7.15968 5.57894 7.15968 6.55589C7.15968 7.53303 7.51021 8.37897 8.20162 9.07026C8.89302 9.76144 9.73896 10.112 10.7158 10.112ZM16.938 14.3529C16.918 14.0653 16.8777 13.7514 16.8184 13.42C16.7584 13.0861 16.6813 12.7705 16.5889 12.4821C16.4935 12.1839 16.3638 11.8895 16.2034 11.6073C16.0369 11.3144 15.8413 11.0594 15.6219 10.8495C15.3924 10.63 15.1115 10.4535 14.7866 10.3247C14.4629 10.1967 14.1041 10.1318 13.7204 10.1318C13.5697 10.1318 13.4239 10.1936 13.1424 10.3769C12.9423 10.5072 12.7416 10.6366 12.5403 10.7651C12.3469 10.8883 12.0849 11.0038 11.7613 11.1083C11.4456 11.2105 11.125 11.2623 10.8086 11.2623C10.4922 11.2623 10.1717 11.2105 9.85564 11.1083C9.53238 11.0039 9.27038 10.8884 9.07717 10.7652C8.85311 10.622 8.6504 10.4913 8.47455 10.3768C8.1934 10.1935 8.04752 10.1317 7.89682 10.1317C7.51292 10.1317 7.15428 10.1967 6.83065 10.3249C6.50602 10.4534 6.22498 10.6299 5.9953 10.8497C5.776 11.0596 5.58034 11.3145 5.41407 11.6073C5.2538 11.8894 5.12404 12.1838 5.0285 12.4822C4.93623 12.7706 4.85909 13.0861 4.79917 13.42C4.73979 13.751 4.69948 14.0649 4.67953 14.3533C4.65968 14.6435 4.64984 14.9342 4.65003 15.2251C4.65003 15.9958 4.89502 16.6197 5.37814 17.0799C5.8553 17.5339 6.48664 17.7643 7.2544 17.7643H14.3635C15.1312 17.7643 15.7623 17.5341 16.2396 17.0799C16.7228 16.6201 16.9678 15.996 16.9678 15.225C16.9677 14.9275 16.9577 14.6341 16.938 14.3529Z" fill="#3B3C40"/>
</g>
</svg>
