<svg width="21" height="20" viewBox="0 0 21 20" fill="none" xmlns="http://www.w3.org/2000/svg">
<g id="icons">
<path id="Vector" d="M3 3.99341C3 3.62757 3.29432 3.33325 3.66016 3.33325H4.9117C5.51685 3.33325 6.05322 3.68534 6.30353 4.21346H17.6087C18.3321 4.21346 18.8603 4.90112 18.6705 5.59979L17.5427 9.78903C17.3089 10.6527 16.525 11.2551 15.631 11.2551H7.69536L7.8439 12.0391C7.90441 12.3499 8.17673 12.5754 8.49305 12.5754H16.4232C16.789 12.5754 17.0833 12.8698 17.0833 13.2356C17.0833 13.6014 16.789 13.8958 16.4232 13.8958H8.49305C7.54133 13.8958 6.72438 13.2191 6.54834 12.2866L5.129 4.83236C5.10975 4.72783 5.01898 4.65356 4.9117 4.65356H3.66016C3.29432 4.65356 3 4.35924 3 3.99341ZM6.52083 16.0963C6.52083 15.9229 6.55498 15.7512 6.62134 15.591C6.68769 15.4308 6.78494 15.2853 6.90754 15.1627C7.03015 15.0401 7.1757 14.9428 7.33589 14.8765C7.49607 14.8101 7.66776 14.776 7.84115 14.776C8.01453 14.776 8.18622 14.8101 8.34641 14.8765C8.5066 14.9428 8.65215 15.0401 8.77475 15.1627C8.89735 15.2853 8.9946 15.4308 9.06096 15.591C9.12731 15.7512 9.16146 15.9229 9.16146 16.0963C9.16146 16.2697 9.12731 16.4413 9.06096 16.6015C8.9946 16.7617 8.89735 16.9073 8.77475 17.0299C8.65215 17.1525 8.5066 17.2497 8.34641 17.3161C8.18622 17.3824 8.01453 17.4166 7.84115 17.4166C7.66776 17.4166 7.49607 17.3824 7.33589 17.3161C7.1757 17.2497 7.03015 17.1525 6.90754 17.0299C6.78494 16.9073 6.68769 16.7617 6.62134 16.6015C6.55498 16.4413 6.52083 16.2697 6.52083 16.0963ZM15.763 14.776C16.1132 14.776 16.449 14.9151 16.6966 15.1627C16.9442 15.4103 17.0833 15.7461 17.0833 16.0963C17.0833 16.4464 16.9442 16.7823 16.6966 17.0299C16.449 17.2775 16.1132 17.4166 15.763 17.4166C15.4129 17.4166 15.077 17.2775 14.8294 17.0299C14.5818 16.7823 14.4427 16.4464 14.4427 16.0963C14.4427 15.7461 14.5818 15.4103 14.8294 15.1627C15.077 14.9151 15.4129 14.776 15.763 14.776Z" fill="#3B3C40"/>
</g>
</svg>
