<svg width="30" height="30" viewBox="0 0 30 30" fill="none" xmlns="http://www.w3.org/2000/svg">
<g id="vk">
<path id="Vector" d="M18.5852 3.33325H11.4265C4.88854 3.33325 3.33337 4.88842 3.33337 11.4148V18.5734C3.33337 25.1103 4.87687 26.6666 11.4149 26.6666H18.5735C25.1104 26.6666 26.6667 25.1231 26.6667 18.5851V11.4264C26.6667 4.88842 25.1232 3.33325 18.5852 3.33325ZM22.1704 19.9816H20.4682C19.8242 19.9816 19.6305 19.4601 18.4755 18.3051C17.4675 17.3333 17.0417 17.2119 16.7862 17.2119C16.4339 17.2119 16.337 17.3088 16.337 17.7953V19.3259C16.337 19.7401 16.2029 19.9828 15.1214 19.9828C14.0718 19.9122 13.054 19.5933 12.1517 19.0524C11.2495 18.5114 10.4887 17.7638 9.93204 16.8713C8.6104 15.2262 7.69081 13.2956 7.24637 11.2328C7.24637 10.9773 7.34321 10.7463 7.82971 10.7463H9.53071C9.96821 10.7463 10.1257 10.9411 10.2972 11.3903C11.1232 13.8216 12.5325 15.9356 13.1042 15.9356C13.3235 15.9356 13.4192 15.8388 13.4192 15.2916V12.7879C13.3469 11.6458 12.7402 11.5489 12.7402 11.1359C12.748 11.027 12.7979 10.9254 12.8794 10.8526C12.9608 10.7799 13.0674 10.7417 13.1765 10.7463H15.8505C16.2157 10.7463 16.337 10.9283 16.337 11.3658V14.7444C16.337 15.1096 16.4945 15.2309 16.6042 15.2309C16.8235 15.2309 16.9927 15.1096 17.394 14.7083C18.256 13.657 18.9603 12.4858 19.4847 11.2316C19.5383 11.0809 19.6397 10.9519 19.7735 10.8643C19.9073 10.7767 20.066 10.7352 20.2255 10.7463H21.9277C22.4375 10.7463 22.546 11.0018 22.4375 11.3658C21.8186 12.7523 21.0528 14.0684 20.1532 15.2916C19.97 15.5716 19.8965 15.7174 20.1532 16.0453C20.3224 16.3008 20.9185 16.7989 21.3199 17.2726C21.9031 17.8543 22.3874 18.5274 22.7537 19.2653C22.8995 19.7389 22.6557 19.9816 22.1704 19.9816Z" fill="#3B3C40"/>
</g>
</svg>
